<svg width="139" height="98" fill="none" xmlns="http://www.w3.org/2000/svg"><path d="M69.122 68.31c-5.285 5.74-12.866 9.344-21.272 9.344-15.952 0-28.93-12.975-28.93-28.922 0-15.947 12.978-28.921 28.93-28.921 8.392 0 15.96 3.592 21.25 9.318l8.5-9.02a41.311 41.311 0 00-45.574-9.531 41.305 41.305 0 00-18.545 15.21A41.289 41.289 0 0032.026 86.89a41.318 41.318 0 0045.6-9.556l-8.503-9.025z" fill="#fff"/><path fill-rule="evenodd" clip-rule="evenodd" d="M31.883 10.051a41.888 41.888 0 0124.29-2.395 41.985 41.985 0 0121.52 11.555l.002.002c.188.19.375.381.56.575l.532.554-9.6 10.228-.586-.636c-5.133-5.58-12.475-9.078-20.617-9.078-15.476 0-28.068 12.64-28.068 28.173 0 15.534 12.592 28.173 28.068 28.173 8.155 0 15.51-3.509 20.639-9.103l.585-.638 9.604 10.235-.532.553a55.41 55.41 0 01-.585.6l-.001.001v.001a41.984 41.984 0 01-21.522 11.555 41.888 41.888 0 01-24.29-2.395 42.067 42.067 0 01-18.868-15.538A42.3 42.3 0 015.928 49.03a42.3 42.3 0 017.086-23.442A42.067 42.067 0 0131.883 10.05zm23.975-.811a40.285 40.285 0 00-23.36 2.303 40.456 40.456 0 00-18.146 14.944A40.68 40.68 0 007.537 49.03a40.68 40.68 0 006.814 22.545 40.456 40.456 0 0018.147 14.943 40.285 40.285 0 0023.36 2.303A40.378 40.378 0 0076.554 77.71l.032-.031-7.373-7.857c-5.386 5.545-12.915 8.995-21.229 8.995-16.365 0-29.677-13.362-29.677-29.788 0-16.425 13.313-29.788 29.677-29.788 8.301 0 15.816 3.44 21.206 8.97l7.37-7.853A40.377 40.377 0 0055.858 9.24z" fill="#EB2F47"/><path fill-rule="evenodd" clip-rule="evenodd" d="M34.6 2.21a47.408 47.408 0 0130.335 1.263c9.709 3.734 17.953 10.56 23.491 19.445l.435.697-11.886 7.267-.421-.665c-6.06-9.57-16.666-15.922-28.71-15.922-18.783 0-34.065 15.45-34.065 34.44 0 18.989 15.282 34.439 34.065 34.439 12.06 0 22.676-6.369 28.733-15.96l.42-.665 11.886 7.266-.433.698c-5.53 8.89-13.769 15.722-23.474 19.466a47.408 47.408 0 01-30.334 1.29c-9.982-2.906-18.759-9.015-25.007-17.405A48.779 48.779 0 010 48.756 48.78 48.78 0 019.608 19.64C15.85 11.244 24.621 5.127 34.6 2.211zm29.765 2.775a45.824 45.824 0 00-29.32-1.22c-9.646 2.82-18.125 8.732-24.157 16.847a47.149 47.149 0 00-9.287 28.144 47.148 47.148 0 009.313 28.135C16.954 85 25.437 90.904 35.086 93.714a45.823 45.823 0 0029.32-1.247c9.126-3.52 16.911-9.867 22.249-18.123l-9.156-5.597c-6.403 9.666-17.304 16.045-29.655 16.045-19.667 0-35.666-16.174-35.666-36.058 0-19.883 15.999-36.058 35.666-36.058 12.335 0 23.225 6.363 29.63 16.009l9.157-5.598c-5.345-8.25-13.135-14.59-22.266-18.102z" fill="#EB2F47"/><path d="M40.556 50.212a8.479 8.479 0 01-.261-2.073c.002-.704.09-1.405.261-2.087a7.891 7.891 0 012.043-3.63 7.495 7.495 0 012.532-1.703 8.036 8.036 0 016.085-.005c.945.39 1.803.97 2.52 1.708a.636.636 0 01.131.701.636.636 0 01-.142.206.616.616 0 01-.68.13.617.617 0 01-.2-.14 6.238 6.238 0 00-2.113-1.43 6.761 6.761 0 00-5.113.012 6.388 6.388 0 00-2.124 1.422c-1.29 1.331-1.934 2.934-1.935 4.81 0 1.876.644 3.48 1.935 4.81a6.451 6.451 0 002.124 1.439 6.745 6.745 0 005.1 0 6.437 6.437 0 002.13-1.439.627.627 0 01.683-.143.627.627 0 01.342.341.645.645 0 01-.13.695 7.614 7.614 0 01-2.538 1.725 7.962 7.962 0 01-6.069 0 7.629 7.629 0 01-2.532-1.725 7.968 7.968 0 01-2.049-3.624z" fill="#2B2B2B"/><path fill-rule="evenodd" clip-rule="evenodd" d="M51.087 40.962a7.732 7.732 0 00-5.868.005 7.217 7.217 0 00-2.44 1.644 7.631 7.631 0 00-1.969 3.509 8.36 8.36 0 00-.252 2.02c.002.675.086 1.349.252 2.003a7.705 7.705 0 001.975 3.504h.001a7.346 7.346 0 002.44 1.666 7.66 7.66 0 005.851 0 7.33 7.33 0 002.444-1.666.494.494 0 00.101-.537.493.493 0 00-.264-.264.476.476 0 00-.526.111h-.001a6.443 6.443 0 01-2.132 1.445 6.728 6.728 0 01-5.1 0h-.001a6.456 6.456 0 01-2.127-1.444v-.001c-1.29-1.334-1.936-2.944-1.935-4.824 0-1.88.646-3.49 1.935-4.824a6.393 6.393 0 012.127-1.428m5.49-.92a7.25 7.25 0 012.427 1.65.492.492 0 01.1.543.492.492 0 01-.108.159h-.001l-.001.002a.473.473 0 01-.522.1.472.472 0 01-.154-.109l-.001-.001a6.25 6.25 0 00-2.117-1.435 6.744 6.744 0 00-5.113.01m-.478-1.161a7.99 7.99 0 016.065-.006c.945.39 1.8.972 2.517 1.71a.76.76 0 01.217.544.77.77 0 01-.471.7.726.726 0 01-.808-.175 5.986 5.986 0 00-2.027-1.374 6.486 6.486 0 00-4.916.01v.001a6.13 6.13 0 00-2.04 1.369c-1.239 1.283-1.857 2.826-1.858 4.635 0 1.81.618 3.352 1.859 4.636a6.192 6.192 0 002.04 1.385 6.469 6.469 0 004.902 0 6.182 6.182 0 002.044-1.385.748.748 0 01.526-.227.737.737 0 01.53.219.761.761 0 01.224.535.773.773 0 01-.215.54 7.595 7.595 0 01-2.533 1.725c-1.94.8-4.11.8-6.05 0a7.61 7.61 0 01-2.527-1.725 7.974 7.974 0 01-2.044-3.625 8.495 8.495 0 01-.26-2.071 8.636 8.636 0 01.26-2.086m4.565-5.335a7.48 7.48 0 00-2.527 1.703 7.9 7.9 0 00-2.038 3.632" fill="#2B2B2B"/><path d="M60.441 55.533V46.39a5.69 5.69 0 01.546-2.438 6.362 6.362 0 011.453-1.997 6.864 6.864 0 012.168-1.341 7.353 7.353 0 016.064.342 6.495 6.495 0 012.488 2.289c.6.939.916 2.03.91 3.145v9.143a.62.62 0 01-.629.628.63.63 0 01-.454-.181.598.598 0 01-.187-.447v-3.684H61.699v3.684a.628.628 0 01-1.258 0zm1.258-4.941h11.1V46.39a4.562 4.562 0 00-.746-2.515 5.279 5.279 0 00-2.025-1.83 6.08 6.08 0 00-5.562 0 5.267 5.267 0 00-2.026 1.83 4.556 4.556 0 00-.745 2.515l.004 4.202z" fill="#2B2B2B"/><path fill-rule="evenodd" clip-rule="evenodd" d="M67.661 40.397a7.058 7.058 0 00-2.953.468 6.593 6.593 0 00-2.083 1.291 6.123 6.123 0 00-1.394 1.923 5.475 5.475 0 00-.522 2.34v8.99a.485.485 0 00.482.485.482.482 0 00.483-.484v-3.757h11.15v3.759a.455.455 0 00.142.34h.002v.002a.483.483 0 00.35.14h.004a.475.475 0 00.48-.483v-8.992a5.567 5.567 0 00-.87-3.02h-.001a6.242 6.242 0 00-2.388-2.204 7.059 7.059 0 00-2.882-.798zm-3.05.218a7.323 7.323 0 016.056.343 6.51 6.51 0 012.49 2.297 5.83 5.83 0 01.913 3.164v8.99a.745.745 0 01-.75.752.748.748 0 01-.538-.216.721.721 0 01-.224-.537v-3.487H61.94v3.489a.753.753 0 01-.75.752.749.749 0 01-.75-.752v-8.99a5.744 5.744 0 01.547-2.454 6.39 6.39 0 011.456-2.007 6.862 6.862 0 012.168-1.344zm-.15 1.412a6.081 6.081 0 015.573 0 5.315 5.315 0 012.037 1.846 4.63 4.63 0 01.752 2.546v4.266H61.674l-.003-4.265a4.622 4.622 0 01.752-2.547 5.304 5.304 0 012.037-1.846zm2.786-.409c-.927 0-1.84.222-2.665.647a5.037 5.037 0 00-1.935 1.754 4.354 4.354 0 00-.71 2.4l.004 3.998h10.615v-3.998a4.362 4.362 0 00-.709-2.4 5.048 5.048 0 00-1.934-1.754 5.814 5.814 0 00-2.666-.647z" fill="#2B2B2B"/><path d="M79.996 55.51v-9.13c0-.841.186-1.672.545-2.434.35-.753.844-1.43 1.453-1.994a6.869 6.869 0 012.168-1.339 7.356 7.356 0 016.06.342 6.485 6.485 0 012.487 2.285c.603.938.92 2.03.916 3.144v9.125a.621.621 0 01-.629.628.627.627 0 01-.454-.181.598.598 0 01-.188-.447v-3.678h-11.1v3.678a.628.628 0 11-1.258 0zm1.258-4.934H92.35V46.38a4.545 4.545 0 00-.745-2.51 5.265 5.265 0 00-2.023-1.829 6.083 6.083 0 00-5.559 0A5.264 5.264 0 0082 43.87a4.545 4.545 0 00-.745 2.511v4.196z" fill="#2B2B2B"/><path fill-rule="evenodd" clip-rule="evenodd" d="M87.213 40.397a7.056 7.056 0 00-2.95.467h-.001a6.594 6.594 0 00-2.083 1.29 6.127 6.127 0 00-1.394 1.919 5.476 5.476 0 00-.521 2.336v8.977h-.134l.133.005a.486.486 0 00.673.465.484.484 0 00.294-.465v-3.756h11.15v3.754a.455.455 0 00.142.339v.001l.002.001a.481.481 0 00.348.14h.004a.474.474 0 00.482-.482v-8.975a5.555 5.555 0 00-.877-3.019 6.231 6.231 0 00-2.387-2.2 7.059 7.059 0 00-2.88-.797zm-7.216 14.987V46.41a5.746 5.746 0 01.546-2.45 6.392 6.392 0 011.455-2.003 6.863 6.863 0 012.168-1.343 7.323 7.323 0 016.051.342 6.498 6.498 0 012.49 2.294c.604.944.922 2.042.918 3.163v8.973a.746.746 0 01-.75.751.747.747 0 01-.538-.216.722.722 0 01-.225-.536v-3.482H81.497v3.481a.753.753 0 01-1.044.718.75.75 0 01-.457-.718zm4.019-13.36a6.084 6.084 0 015.572 0 5.3 5.3 0 012.034 1.844c.494.755.755 1.639.752 2.542v4.259H81.23v-4.26a4.613 4.613 0 01.751-2.541 5.3 5.3 0 012.035-1.844m2.786-.408a5.81 5.81 0 00-2.664.646 5.033 5.033 0 00-1.933 1.751 4.346 4.346 0 00-.708 2.396v3.992h10.61V46.41a4.344 4.344 0 00-.709-2.395 5.034 5.034 0 00-1.932-1.752 5.816 5.816 0 00-2.664-.646z" fill="#2B2B2B"/><path d="M100.894 47.508c-.896-.848-1.344-1.868-1.343-3.059 0-1.19.448-2.21 1.343-3.059.895-.848 1.971-1.272 3.227-1.272h6.333a.63.63 0 01.459.186.647.647 0 01.19.456.647.647 0 01-.649.641h-6.333a3.292 3.292 0 00-2.324.895c-.643.597-.964 1.316-.965 2.156 0 .84.321 1.559.965 2.155.63.592 1.463.914 2.324.896h3.356c1.248.014 2.312.444 3.193 1.288.88.844 1.322 1.858 1.324 3.04 0 1.194-.445 2.213-1.337 3.059-.891.845-1.965 1.27-3.222 1.272h-6.884a.632.632 0 01-.449-.188.645.645 0 010-.907.632.632 0 01.449-.188h6.884a3.291 3.291 0 002.324-.896c.643-.597.964-1.316.965-2.156.001-.84-.321-1.559-.965-2.155a3.292 3.292 0 00-2.324-.896h-3.31c-1.259.003-2.336-.42-3.231-1.268z" fill="#2B2B2B"/><path fill-rule="evenodd" clip-rule="evenodd" d="M110.546 40.427a.483.483 0 00-.191-.035h-6.198c-1.195 0-2.215.404-3.066 1.213-.849.81-1.27 1.776-1.27 2.907-.001 1.131.42 2.098 1.27 2.907.851.81 1.871 1.212 3.069 1.21h3.238a3.345 3.345 0 012.366.916c.656.61.988 1.353.988 2.22-.001.866-.333 1.608-.987 2.219a3.348 3.348 0 01-2.367.916h-6.734a.482.482 0 00-.344.145.499.499 0 000 .699.482.482 0 00.344.144h6.735c1.196-.002 2.214-.406 3.06-1.213.846-.806 1.266-1.773 1.266-2.907-.002-1.123-.418-2.084-1.254-2.889-.836-.805-1.844-1.215-3.032-1.229h-3.281a3.345 3.345 0 01-2.366-.916c-.656-.61-.988-1.353-.988-2.22.001-.866.333-1.608.987-2.219a3.347 3.347 0 012.367-.916h6.198a.48.48 0 00.351-.142h.001a.49.49 0 00.145-.352.496.496 0 00-.145-.35h-.001a.487.487 0 00-.161-.108zm-.194-.309a.75.75 0 01.544.222.76.76 0 01.227.545.771.771 0 01-.477.713.747.747 0 01-.294.055h-6.198a3.076 3.076 0 00-2.179.842h-.001c-.602.563-.9 1.234-.9 2.02-.001.786.296 1.456.9 2.018h.001c.59.558 1.372.86 2.179.844h3.287c1.255.015 2.329.45 3.216 1.304.887.854 1.335 1.886 1.337 3.087 0 1.213-.452 2.25-1.35 3.106-.898.856-1.982 1.285-3.244 1.288h-6.736a.748.748 0 01-.534-.225.772.772 0 010-1.085.749.749 0 01.534-.225h6.738a3.077 3.077 0 002.179-.843l.001-.001c.602-.562.9-1.233.9-2.019.001-.786-.296-1.456-.9-2.018h-.001a3.077 3.077 0 00-2.179-.844h-3.241c-1.265.003-2.352-.425-3.254-1.283-.902-.859-1.357-1.897-1.356-3.107 0-1.21.455-2.248 1.356-3.106.902-.858 1.988-1.288 3.25-1.288h6.195z" fill="#2B2B2B"/><path d="M118.51 55.517V40.759a.648.648 0 01.179-.456.61.61 0 01.441-.185l.043.006.043.005a.157.157 0 00.034-.005.17.17 0 01.043-.006h6.806c1.342 0 2.486.446 3.431 1.339.946.892 1.42 1.97 1.423 3.232 0 1.26-.473 2.334-1.419 3.222-.946.889-2.09 1.333-3.431 1.333h-6.354v6.277c0 .17-.065.333-.181.453a.61.61 0 01-.877 0 .653.653 0 01-.181-.453v-.004zm1.239-7.559h6.353c.993 0 1.844-.319 2.551-.956.707-.638 1.06-1.41 1.06-2.316 0-.907-.353-1.682-1.06-2.323-.707-.64-1.558-.961-2.551-.961h-6.353v6.556z" fill="#2B2B2B"/><path fill-rule="evenodd" clip-rule="evenodd" d="M119.24 40.391a.454.454 0 00-.33.142.483.483 0 00-.137.35v14.512c0 .13.05.256.139.349a.466.466 0 00.672 0 .503.503 0 00.139-.349v-6.306h6.351c1.282 0 2.369-.426 3.27-1.275.9-.849 1.346-1.869 1.346-3.066-.002-1.2-.45-2.224-1.35-3.077-.9-.853-1.987-1.28-3.27-1.28h-6.662c-.003 0-.007 0-.01.002a.281.281 0 01-.058.01h-.011l-.054-.007-.035-.005zm-.275-.217a.705.705 0 01.285-.056h.007l.05.007.026.003a.303.303 0 01.074-.01h6.663c1.345 0 2.496.45 3.448 1.351.951.902 1.432 1.997 1.435 3.278 0 1.28-.48 2.371-1.432 3.27-.952.896-2.104 1.345-3.447 1.345h-6.088v6.033a.784.784 0 01-.216.542.724.724 0 01-.522.225.724.724 0 01-.522-.225.784.784 0 01-.216-.542v-14.51a.78.78 0 01.214-.545.73.73 0 01.241-.166zm.758 1.206h6.35c1.002 0 1.866.326 2.583.979.719.654 1.083 1.451 1.083 2.386 0 .933-.364 1.728-1.083 2.379-.717.65-1.581.974-2.583.974h-6.35V41.38zm.263.273v6.172h6.087c.943 0 1.744-.303 2.41-.907.666-.603.993-1.325.993-2.173 0-.85-.327-1.575-.993-2.18-.667-.607-1.467-.912-2.41-.912h-6.087z" fill="#2B2B2B"/><path d="M137.471 55.497V40.782a.674.674 0 01.165-.468.56.56 0 01.854 0 .647.647 0 01.127.216c.028.08.041.166.038.252v14.715a.695.695 0 01-.038.253.649.649 0 01-.127.215.584.584 0 01-.427.197.56.56 0 01-.427-.197.675.675 0 01-.165-.468z" fill="#2B2B2B"/><path fill-rule="evenodd" clip-rule="evenodd" d="M137.77 40.39a.65.65 0 00-.224.04.591.591 0 00-.189.112.487.487 0 00-.122.166.423.423 0 00-.037.194v14.47h-.158l.158.006a.423.423 0 00.037.194.49.49 0 00.122.166.593.593 0 00.189.112.648.648 0 00.636-.112.492.492 0 00.123-.166.437.437 0 00.037-.194V40.902a.436.436 0 00-.037-.194.49.49 0 00-.123-.166.576.576 0 00-.188-.112.654.654 0 00-.224-.04zm-.889 14.98V40.91a.675.675 0 01.058-.3.765.765 0 01.19-.257.908.908 0 01.293-.174 1.012 1.012 0 01.696 0c.11.04.209.1.292.174a.752.752 0 01.19.258.675.675 0 01.058.299v14.46a.675.675 0 01-.058.299.752.752 0 01-.19.258.905.905 0 01-.292.173 1.017 1.017 0 01-.696 0 .91.91 0 01-.293-.173.765.765 0 01-.19-.258.675.675 0 01-.058-.3z" fill="#2B2B2B"/><path fill-rule="evenodd" clip-rule="evenodd" d="M32.294 16.305a35.981 35.981 0 0138.105 4.45l.679.548-9.53 10.117-.576-.43a21.97 21.97 0 00-13.126-4.332c-12.176 0-22.083 9.903-22.083 22.072 0 12.17 9.905 22.073 22.083 22.073a21.97 21.97 0 0013.149-4.353l.577-.43 9.533 10.122-.677.547a35.975 35.975 0 01-53.026-8.766 35.938 35.938 0 0114.892-51.618zm19.509-1.673A34.363 34.363 0 0018.75 30.437a34.322 34.322 0 0014.273 49.285 34.364 34.364 0 0035.704-3.75l-7.351-7.805a23.589 23.589 0 01-13.531 4.251c-13.07 0-23.698-10.626-23.698-23.688 0-13.061 10.63-23.687 23.698-23.687v.807-.808a23.587 23.587 0 0113.506 4.232l-.486.515.589.554.482-.648a24.05 24.05 0 00-.585-.421l7.347-7.8c.231.176.46.356.687.539l.507-.629-.588-.553-.606.643a34.358 34.358 0 00-16.895-6.842z" fill="#EB2F47"/></svg>