<svg width="139" height="98" viewBox="0 0 139 98" fill="none" xmlns="http://www.w3.org/2000/svg">
<path d="M69.1217 68.3093C63.8374 74.0506 56.2557 77.6537 47.85 77.6537C31.8985 77.6537 18.9205 64.6793 18.9205 48.7322C18.9205 32.785 31.8985 19.8106 47.85 19.8106C56.2423 19.8106 63.8105 23.403 69.0993 29.1291L77.5991 20.1088C77.4163 19.919 77.2321 19.7306 77.0464 19.5438C71.2706 13.7651 63.9102 9.82886 55.8964 8.23285C47.8825 6.63684 39.5751 7.45281 32.0252 10.5776C24.4752 13.7023 18.0219 18.9954 13.4815 25.7873C8.94107 32.5793 6.51758 40.5648 6.51758 48.7339C6.51758 56.903 8.94107 64.8886 13.4815 71.6806C18.0219 78.4725 24.4752 83.7656 32.0252 86.8903C39.5751 90.0151 47.8825 90.831 55.8964 89.235C63.9102 87.639 71.2706 83.7027 77.0464 77.9241C77.2405 77.7289 77.4331 77.5322 77.6241 77.334L69.1217 68.3093Z" fill="white"/>
<path fill-rule="evenodd" clip-rule="evenodd" d="M31.8826 10.0511C39.5649 6.85892 48.0179 6.02533 56.1723 7.65579C64.3267 9.28625 71.8162 13.3075 77.6932 19.2108L77.6948 19.2125C77.8832 19.4027 78.0701 19.5945 78.2554 19.7879L78.7865 20.3418L69.1866 30.5703L68.6014 29.9342C63.4682 24.3544 56.1258 20.8565 47.9844 20.8565C32.5082 20.8565 19.9156 33.4957 19.9156 49.0292C19.9156 64.5627 32.5082 77.2019 47.9844 77.2019C56.139 77.2019 63.4943 73.6934 68.6228 68.0993L69.208 67.461L78.8119 77.6956L78.28 78.2495C78.0864 78.4511 77.8913 78.6511 77.6948 78.8496L77.694 78.8504L77.6932 78.8512C71.8162 84.7545 64.3267 88.7758 56.1723 90.4062C48.0179 92.0367 39.5649 91.2031 31.8826 88.0109C24.2003 84.8187 17.6338 79.4114 13.0137 72.4729C8.39372 65.5344 5.92773 57.3764 5.92773 49.031C5.92773 40.6856 8.39372 32.5277 13.0137 25.5891C17.6338 18.6506 24.2003 13.2433 31.8826 10.0511ZM55.858 9.23966C48.0157 7.67162 39.8863 8.4733 32.4981 11.5433C25.1098 14.6133 18.7947 19.8136 14.3515 26.4865C9.90836 33.1594 7.53677 41.0051 7.53677 49.031C7.53677 57.057 9.90836 64.9026 14.3515 71.5755C18.7947 78.2484 25.1098 83.4488 32.4981 86.5187C39.8863 89.5887 48.0157 90.3904 55.858 88.8224C63.6999 87.2544 70.9023 83.3873 76.5543 77.7104C76.5648 77.6998 76.5752 77.6892 76.5857 77.6786L69.2131 69.822C63.8267 75.3668 56.2984 78.8169 47.9844 78.8169C31.6195 78.8169 18.3066 65.4547 18.3066 49.0292C18.3066 32.6037 31.6195 19.2415 47.9844 19.2415C56.2855 19.2415 63.8005 22.6816 69.1898 28.2115L76.5607 20.3581C76.5585 20.3558 76.5562 20.3535 76.5539 20.3513C70.902 14.6745 63.6997 10.8076 55.858 9.23966Z" fill="#EB2F47"/>
<path fill-rule="evenodd" clip-rule="evenodd" d="M34.6001 2.21085C44.5795 -0.705206 55.2261 -0.262391 64.9349 3.47254C74.6436 7.20748 82.8883 14.0321 88.4261 22.9175L88.8607 23.615L76.9746 30.8816L76.5539 30.2173C70.4933 20.6468 59.8876 14.2949 47.8437 14.2949C29.0612 14.2949 13.7793 29.745 13.7793 48.7343C13.7793 67.7236 29.0612 83.1737 47.8437 83.1737C59.9032 83.1737 70.5203 76.8051 76.5774 67.2143L76.9978 66.5487L88.8832 73.8155L88.4496 74.5126C82.92 83.4033 74.6815 90.2355 64.9761 93.9795C55.2707 97.7235 44.6246 98.1762 34.6425 95.2695C24.6604 92.3627 15.8835 86.254 9.63494 77.8643C3.38636 69.4745 0.00479212 59.2585 5.08945e-06 48.7563C-0.00478194 38.2541 3.36748 28.0349 9.6084 19.6393C15.8493 11.2438 24.6206 5.12691 34.6001 2.21085ZM64.3655 4.98529C54.9812 1.37519 44.6905 0.947173 35.0446 3.76577C25.3987 6.58437 16.9205 12.4968 10.8882 20.6118C4.85587 28.7267 1.59631 38.6043 1.60094 48.7556C1.60557 58.9068 4.87412 68.7813 10.9139 76.8907C16.9536 85 25.4371 90.9045 35.0856 93.7141C44.734 96.5238 55.0244 96.0862 64.4054 92.4673C73.5325 88.9464 81.3174 82.5998 86.6546 74.3445L77.499 68.7466C71.0963 78.4126 60.1947 84.7922 47.8437 84.7922C28.177 84.7922 12.1784 68.6175 12.1784 48.7343C12.1784 28.8511 28.177 12.6764 47.8437 12.6764C60.1787 12.6764 71.0686 19.0393 77.4742 28.6847L86.6308 23.0867C81.2861 14.8367 73.4955 8.49759 64.3655 4.98529Z" fill="#EB2F47"/>
<path d="M40.5562 50.2115C40.3841 49.5346 40.2963 48.8385 40.2949 48.1394C40.2965 47.4353 40.3842 46.7341 40.5562 46.052C40.9017 44.6771 41.6076 43.4227 42.599 42.4216C43.3197 41.6849 44.1815 41.1054 45.1312 40.719C47.0824 39.9198 49.263 39.9178 51.2157 40.7136C52.1615 41.1034 53.0191 41.6846 53.7362 42.4216C53.7951 42.4815 53.8415 42.5527 53.8729 42.631C53.9043 42.7093 53.9199 42.7932 53.9189 42.8777C53.9179 42.9623 53.9003 43.0457 53.8671 43.1233C53.8339 43.2008 53.7857 43.2708 53.7255 43.3292C53.6673 43.3878 53.5983 43.434 53.5223 43.4652C53.4463 43.4964 53.365 43.512 53.283 43.511C53.2011 43.51 53.1201 43.4924 53.0449 43.4593C52.9697 43.4263 52.9018 43.3783 52.845 43.3183C52.2445 42.7003 51.5251 42.2141 50.7316 41.8898C49.0898 41.2241 47.2579 41.228 45.6188 41.9007C44.824 42.2256 44.1016 42.7092 43.4946 43.3229C42.2056 44.654 41.5607 46.2574 41.5601 48.1331C41.5595 50.0088 42.2044 51.6122 43.4946 52.9433C44.1012 53.5615 44.8234 54.0506 45.6188 54.3818C47.2552 55.0494 49.0827 55.0494 50.7191 54.3818C51.5166 54.0515 52.2407 53.5624 52.8486 52.9433C52.9064 52.8837 52.9753 52.8362 53.0512 52.8036C53.127 52.771 53.2085 52.7539 53.291 52.7532C53.3734 52.7525 53.4551 52.7683 53.5315 52.7997C53.6079 52.8311 53.6775 52.8774 53.7362 52.936C53.795 52.9947 53.8418 53.0645 53.8739 53.1414C53.9061 53.2184 53.923 53.3011 53.9237 53.3847C53.9243 53.4683 53.9087 53.5512 53.8778 53.6287C53.8469 53.7062 53.8012 53.7768 53.7434 53.8364C53.021 54.579 52.1578 55.1656 51.2058 55.5608C49.2601 56.3619 47.0831 56.3619 45.1374 55.5608C44.1876 55.1646 43.3263 54.5781 42.6052 53.8364C41.6154 52.8353 40.9079 51.5837 40.5562 50.2115Z" fill="#2B2B2B"/>
<path fill-rule="evenodd" clip-rule="evenodd" d="M51.0871 40.9616C49.2037 40.1921 47.1006 40.1941 45.2187 40.967L45.2184 40.9671C44.3037 41.3403 43.4737 41.8998 42.7795 42.6114L42.779 42.6119L42.779 42.6119C41.8236 43.5792 41.1433 44.7914 40.8103 46.1199L40.8103 46.12C40.6444 46.7799 40.5597 47.4583 40.5582 48.1395C40.5595 48.8155 40.6442 49.4887 40.8102 50.1434C41.1492 51.4695 41.8311 52.6791 42.7852 53.6465L42.786 53.6473C43.4806 54.3638 44.3102 54.9303 45.2252 55.313C47.1015 56.0875 49.2008 56.0875 51.0771 55.3129C51.9941 54.9313 52.8256 54.3647 53.5214 53.6474C53.566 53.6013 53.6012 53.5468 53.6251 53.4869C53.6489 53.427 53.6609 53.3629 53.6604 53.2982C53.6599 53.2336 53.6469 53.1697 53.6221 53.1102C53.5973 53.0507 53.5612 52.9967 53.5159 52.9514C53.4706 52.9061 53.417 52.8703 53.3581 52.846C53.2992 52.8218 53.2362 52.8095 53.1726 52.8101C53.1091 52.8106 53.0462 52.8238 52.9877 52.849C52.9292 52.8743 52.8762 52.911 52.8316 52.957L52.831 52.9576C52.2225 53.579 51.4975 54.0701 50.6991 54.4016L50.6984 54.4018C49.0622 55.0711 47.2348 55.0711 45.5985 54.4018L45.5976 54.4015C44.8013 54.069 44.0783 53.5781 43.4712 52.9576L43.4706 52.957C42.1809 51.6229 41.5351 50.0125 41.5357 48.1332C41.5363 46.2539 42.1821 44.6435 43.4706 43.3095L43.471 43.309L43.4715 43.3085C44.0792 42.6924 44.8025 42.2068 45.5983 41.8807M51.0871 40.9616C51.998 41.3381 52.8239 41.8993 53.5146 42.6111L53.515 42.6116C53.5603 42.6578 53.5961 42.7128 53.6203 42.7733C53.6445 42.8338 53.6565 42.8986 53.6557 42.9639C53.655 43.0292 53.6414 43.0937 53.6158 43.1536C53.5902 43.2135 53.5531 43.2676 53.5067 43.3128L53.5059 43.3136L53.505 43.3145C53.4603 43.3596 53.4073 43.3952 53.349 43.4192C53.2907 43.4432 53.2283 43.4551 53.1654 43.4544C53.1025 43.4536 53.0404 43.4401 52.9827 43.4146C52.9249 43.3892 52.8728 43.3523 52.8292 43.3061L52.8286 43.3055L52.828 43.3048C52.2264 42.6841 51.5057 42.1957 50.7108 41.8699L50.7105 41.8698C49.0689 41.2024 47.2372 41.2063 45.5984 41.8806M45.1202 40.7187C47.0653 39.9199 49.239 39.9179 51.1854 40.7133L51.1859 40.7135C52.1299 41.1036 52.9859 41.6852 53.7017 42.4228C53.7716 42.4942 53.8269 42.5792 53.8642 42.6726C53.9015 42.7661 53.9202 42.8662 53.919 42.9671C53.9178 43.0681 53.8968 43.1677 53.8573 43.2603C53.8179 43.3525 53.7609 43.4358 53.6896 43.5054C53.6203 43.5751 53.5381 43.6301 53.4478 43.6673C53.3571 43.7047 53.26 43.7233 53.1622 43.7221C53.0643 43.7209 52.9677 43.6998 52.8779 43.6603C52.7884 43.6208 52.7075 43.5637 52.6399 43.4922C52.0638 42.8979 51.3738 42.4303 50.6126 42.1183C49.0341 41.4767 47.2728 41.4805 45.697 42.1289L45.6968 42.129C44.9339 42.4416 44.2405 42.9071 43.6579 43.4976C42.4183 44.7812 41.7995 46.324 41.7989 48.1332C41.7984 49.9425 42.4172 51.4853 43.658 52.769C44.2403 53.364 44.9336 53.8348 45.6972 54.1536C47.2702 54.7969 49.0269 54.7969 50.5999 54.1536C51.3655 53.8356 52.0606 53.3648 52.6442 52.769C52.713 52.698 52.7948 52.6414 52.885 52.6025C52.9754 52.5636 53.0724 52.5431 53.1705 52.5423C53.2686 52.5415 53.3659 52.5604 53.4569 52.5978C53.5478 52.6353 53.6306 52.6906 53.7006 52.7606C53.7705 52.8306 53.8262 52.9139 53.8645 53.0058C53.9028 53.0976 53.9229 53.1963 53.9237 53.2961C53.9244 53.3959 53.9059 53.4948 53.8691 53.5873C53.8323 53.6798 53.7779 53.7641 53.7091 53.8352L53.709 53.8353C52.988 54.5785 52.1266 55.1654 51.1765 55.5608L51.1762 55.561C49.2363 56.3618 47.0659 56.3618 45.126 55.561L45.1255 55.5607C44.1778 55.1644 43.3184 54.5777 42.5989 53.8357C41.6117 52.8345 40.9061 51.5828 40.5554 50.2106L40.5553 50.2103C40.3838 49.5339 40.2963 48.8383 40.2949 48.1397L40.2949 48.1391C40.2965 47.4357 40.3839 46.7352 40.5552 46.0537M45.1202 40.7187C44.1724 41.1054 43.3123 41.6852 42.5929 42.4225C41.6041 43.4238 40.9 44.6785 40.5553 46.0537" fill="#2B2B2B"/>
<path d="M60.4414 55.533V46.3898C60.4404 45.547 60.6265 44.7145 60.9866 43.9524C61.3359 43.1979 61.8298 42.5191 62.4403 41.9545C63.0728 41.3763 63.8081 40.9216 64.6081 40.614C65.5849 40.2359 66.6313 40.0708 67.6771 40.1299C68.7229 40.1889 69.744 40.4707 70.672 40.9564C71.6888 41.4864 72.5471 42.276 73.1597 43.2449C73.7597 44.1838 74.0758 45.2758 74.0701 46.3898V55.533C74.0712 55.6159 74.0557 55.6981 74.0245 55.7748C73.9933 55.8516 73.947 55.9213 73.8884 55.9798C73.8298 56.0384 73.76 56.0847 73.6833 56.1159C73.6065 56.1471 73.5242 56.1626 73.4414 56.1615C73.3573 56.1631 73.2738 56.1478 73.1958 56.1166C73.1178 56.0854 73.0468 56.0389 72.9871 55.9798C72.9264 55.9225 72.8784 55.8532 72.8461 55.7762C72.8139 55.6993 72.7982 55.6164 72.7999 55.533V51.8487H61.6989V55.533C61.6989 55.6997 61.6326 55.8595 61.5147 55.9774C61.3968 56.0953 61.2369 56.1615 61.0701 56.1615C60.9034 56.1615 60.7435 56.0953 60.6256 55.9774C60.5076 55.8595 60.4414 55.6997 60.4414 55.533ZM61.6989 50.5918H72.7981V46.3898C72.8012 45.4968 72.5422 44.6225 72.053 43.8752C71.5503 43.098 70.8518 42.4666 70.0278 42.0444C69.1677 41.6021 68.2144 41.3715 67.2471 41.3715C66.2799 41.3715 65.3266 41.6021 64.4664 42.0444C63.6418 42.466 62.9429 43.0975 62.4403 43.8752C61.9508 44.6223 61.6917 45.4968 61.6952 46.3898L61.6989 50.5918Z" fill="#2B2B2B"/>
<path fill-rule="evenodd" clip-rule="evenodd" d="M67.6613 40.3973C66.655 40.3404 65.6482 40.4997 64.7083 40.8646L64.708 40.8647C63.9394 41.1611 63.2329 41.5992 62.6252 42.1563C62.0396 42.6996 61.5658 43.3527 61.2307 44.0786L61.2303 44.0795C60.8858 44.811 60.7076 45.61 60.7086 46.4189L60.7086 46.4191L60.7086 55.4096C60.7086 55.5379 60.7595 55.661 60.85 55.7518C60.9406 55.8426 61.0634 55.8936 61.1914 55.8936C61.3195 55.8936 61.4423 55.8426 61.5328 55.7518C61.6234 55.661 61.6742 55.5379 61.6742 55.4096V51.6528H72.8248V55.411L72.8248 55.4124C72.8235 55.4757 72.8354 55.5386 72.8598 55.597C72.8842 55.6554 72.9205 55.7081 72.9664 55.7516L72.9676 55.7526L72.9687 55.7537C73.0145 55.7992 73.069 55.835 73.129 55.8591C73.1889 55.8831 73.253 55.8948 73.3175 55.8936L73.3197 55.8936L73.3218 55.8936C73.3852 55.8944 73.4482 55.8825 73.5069 55.8586C73.5656 55.8347 73.619 55.7992 73.6638 55.7542C73.7087 55.7093 73.7441 55.6558 73.768 55.5969C73.7918 55.538 73.8037 55.4749 73.8029 55.4114L73.8029 55.4105V46.4191L73.8029 46.4184C73.8083 45.3487 73.5057 44.3002 72.9313 43.3988L72.931 43.3982C72.343 42.4655 71.5192 41.7054 70.5432 41.1951L70.543 41.195C69.6501 40.7263 68.6676 40.4543 67.6613 40.3973ZM64.6119 40.6147C65.5873 40.2361 66.6321 40.0707 67.6764 40.1299C68.7207 40.189 69.7403 40.4712 70.6669 40.9576C71.6845 41.4897 72.5435 42.2823 73.1567 43.2548C73.7586 44.1996 74.0757 45.2985 74.0701 46.4195C74.0701 46.4196 74.0701 46.4196 74.0701 46.4197L74.0701 55.4088C74.0713 55.5078 74.0527 55.606 74.0155 55.6978C73.9782 55.7898 73.9229 55.8734 73.8528 55.9437C73.7827 56.0139 73.6993 56.0694 73.6075 56.1068C73.5164 56.1439 73.4188 56.1625 73.3205 56.1615C73.221 56.1631 73.1221 56.1449 73.0297 56.1078C72.9371 56.0707 72.8528 56.0154 72.7818 55.9452C72.7093 55.8763 72.6519 55.7929 72.6133 55.7005C72.5747 55.608 72.5557 55.5085 72.5576 55.4082V51.9207H61.9415V55.4096C61.9415 55.609 61.8624 55.8002 61.7218 55.9412C61.5811 56.0822 61.3904 56.1615 61.1914 56.1615C60.9925 56.1615 60.8017 56.0822 60.6611 55.9412C60.5204 55.8002 60.4414 55.609 60.4414 55.4096V46.4191C60.4404 45.5708 60.6272 44.7328 60.9884 43.9656C61.3383 43.208 61.8327 42.5264 62.444 41.9594L62.4445 41.9589C63.077 41.3791 63.8121 40.9232 64.6119 40.6147ZM64.4601 42.027C65.3223 41.5824 66.2778 41.3505 67.2473 41.3505C68.2168 41.3505 69.1723 41.5824 70.0345 42.027C70.863 42.4528 71.5653 43.0895 72.0709 43.8732C72.5646 44.6299 72.8261 45.515 72.823 46.4191C72.823 46.4193 72.823 46.4194 72.823 46.4195L72.823 50.6848H61.6743L61.6707 46.4196C61.6707 46.4195 61.6707 46.4195 61.6707 46.4194C61.6671 45.5152 61.9286 44.6299 62.4227 43.8734C62.9282 43.0891 63.6309 42.4523 64.4601 42.027ZM67.2473 41.6184C66.3203 41.6184 65.4066 41.8402 64.5822 42.2653L64.582 42.2654C63.7944 42.6693 63.127 43.2742 62.6469 44.0191L62.6465 44.0198C62.1809 44.7325 61.9345 45.5666 61.9379 46.4185L61.9379 46.4189L61.9413 50.4169H72.5558V46.4191L72.5558 46.4186C72.5588 45.5667 72.3124 44.7326 71.8472 44.0197L71.8468 44.0191C71.3666 43.2746 70.6995 42.6698 69.9125 42.2653L69.9123 42.2653C69.088 41.8402 68.1743 41.6184 67.2473 41.6184Z" fill="#2B2B2B"/>
<path d="M79.9965 55.5093V46.3802C79.9959 45.5387 80.182 44.7076 80.5414 43.9465C80.8909 43.1933 81.3845 42.5156 81.9944 41.9516C82.627 41.3743 83.3622 40.9204 84.1621 40.6132C85.1383 40.2357 86.184 40.0709 87.2291 40.1298C88.2743 40.1888 89.2947 40.4702 90.222 40.9551C91.2388 41.484 92.097 42.2724 92.7094 43.2401C93.3116 44.178 93.6295 45.2697 93.6248 46.3838V55.5093C93.6256 55.592 93.61 55.674 93.5787 55.7505C93.5474 55.827 93.5011 55.8965 93.4426 55.9549C93.3841 56.0134 93.3145 56.0595 93.2379 56.0908C93.1612 56.122 93.0791 56.1377 92.9964 56.1368C92.9124 56.1386 92.8289 56.1234 92.7509 56.0923C92.6728 56.0611 92.6019 56.0146 92.5423 55.9555C92.4815 55.8983 92.4334 55.8291 92.401 55.7523C92.3687 55.6754 92.3528 55.5927 92.3543 55.5093V51.8307H81.2543V55.5093C81.2575 55.5938 81.2436 55.6781 81.2135 55.757C81.1833 55.836 81.1375 55.9081 81.0788 55.969C81.0201 56.0299 80.9497 56.0784 80.8718 56.1114C80.7939 56.1445 80.7101 56.1616 80.6254 56.1616C80.5408 56.1616 80.457 56.1445 80.3791 56.1114C80.3012 56.0784 80.2308 56.0299 80.172 55.969C80.1133 55.9081 80.0675 55.836 80.0374 55.757C80.0072 55.6781 79.9933 55.5938 79.9965 55.5093ZM81.2543 50.5757H92.3489V46.3802C92.3524 45.4885 92.0935 44.6154 91.6042 43.8694C91.1023 43.0932 90.4044 42.4627 89.5809 42.0414C88.7212 41.5998 87.7684 41.3695 86.8016 41.3695C85.8348 41.3695 84.882 41.5998 84.0223 42.0414C83.1987 42.4627 82.5009 43.0932 81.999 43.8694C81.5097 44.6154 81.2508 45.4885 81.2543 46.3802V50.5757Z" fill="#2B2B2B"/>
<path fill-rule="evenodd" clip-rule="evenodd" d="M87.2134 40.3969C86.2077 40.34 85.2015 40.4991 84.2623 40.8635L84.262 40.8636C83.4934 41.1595 82.787 41.5969 82.1792 42.1532C81.5942 42.6959 81.1207 43.348 80.7855 44.0726L80.7851 44.0734C80.4411 44.804 80.2631 45.6017 80.2636 46.4094L80.2636 55.3865H80.1301L80.2635 55.3915C80.2611 55.4566 80.2717 55.5215 80.2949 55.5824C80.3181 55.6433 80.3533 55.6988 80.3984 55.7457C80.4435 55.7926 80.4976 55.83 80.5574 55.8555C80.6172 55.881 80.6816 55.8941 80.7466 55.8941C80.8117 55.8941 80.876 55.881 80.9359 55.8555C80.9957 55.83 81.0498 55.7926 81.0949 55.7457C81.14 55.6988 81.1752 55.6433 81.1984 55.5824C81.2215 55.5215 81.2322 55.4566 81.2297 55.3915L81.2296 55.389V51.6354H92.3792V55.3877L92.3792 55.389C92.378 55.4523 92.3901 55.5151 92.4146 55.5735C92.4391 55.6318 92.4755 55.6844 92.5215 55.7278L92.5228 55.729L92.5241 55.7303C92.5698 55.7757 92.6242 55.8115 92.684 55.8355C92.7439 55.8595 92.8079 55.8711 92.8723 55.8698L92.8744 55.8697L92.8765 55.8697C92.9399 55.8704 93.0027 55.8584 93.0614 55.8344C93.1201 55.8104 93.1734 55.7749 93.2182 55.73C93.263 55.6852 93.2984 55.6318 93.3224 55.573C93.3463 55.5143 93.3583 55.4513 93.3577 55.3878L93.3577 55.3872V46.4131L93.3577 46.4125C93.3622 45.3428 93.0579 44.2945 92.4814 43.394L92.4809 43.3932C91.8931 42.4616 91.0693 41.7026 90.0935 41.1935L90.0932 41.1934C89.2009 40.7254 88.219 40.4538 87.2134 40.3969ZM79.9965 55.384V46.4096C79.9959 45.5625 80.1827 44.7259 80.5433 43.9598C80.8932 43.2035 81.3874 42.523 81.9981 41.9567L81.9987 41.9561C82.6311 41.3772 83.3662 40.922 84.1659 40.614C85.1407 40.2359 86.1848 40.0708 87.2284 40.1299C88.272 40.1889 89.291 40.4707 90.217 40.9563C91.2345 41.4872 92.0935 42.2786 92.7064 43.2499C93.3106 44.1937 93.6295 45.2923 93.6248 46.4133C93.6248 46.4134 93.6248 46.4136 93.6248 46.4137L93.6248 55.3858C93.6257 55.4846 93.607 55.5826 93.5697 55.6741C93.5323 55.7658 93.477 55.8491 93.4071 55.9192C93.3371 55.9892 93.2539 56.0446 93.1624 56.082C93.0714 56.1192 92.974 56.138 92.8758 56.1372C92.7762 56.139 92.6773 56.1209 92.5848 56.0839C92.4922 56.0468 92.408 55.9915 92.3371 55.9213C92.2646 55.8525 92.2071 55.7694 92.1684 55.6772C92.1296 55.5849 92.1104 55.4854 92.1121 55.3853V51.9029H81.4967V55.3841C81.5002 55.4842 81.4836 55.584 81.448 55.6777C81.412 55.7722 81.3574 55.8584 81.2873 55.9312C81.2173 56.0041 81.1333 56.062 81.0404 56.1016C80.9475 56.1412 80.8476 56.1616 80.7466 56.1616C80.6457 56.1616 80.5458 56.1412 80.4528 56.1016C80.3599 56.062 80.276 56.0041 80.2059 55.9312C80.1359 55.8584 80.0813 55.7722 80.0453 55.6777C80.0097 55.584 79.9931 55.4842 79.9965 55.384ZM84.016 42.024C84.8777 41.5802 85.8328 41.3486 86.8018 41.3486C87.7708 41.3486 88.7259 41.5802 89.5877 42.0241C90.4158 42.4491 91.1175 43.0849 91.6222 43.8677C92.116 44.623 92.3774 45.5069 92.3739 46.4097C92.3739 46.4098 92.3739 46.4099 92.3739 46.41L92.3739 50.6688H81.2296V46.4098C81.2261 45.507 81.4875 44.623 81.9813 43.8677C82.4861 43.0849 83.1878 42.449 84.0159 42.0241M86.8018 41.6161C85.8752 41.6161 84.962 41.8375 84.138 42.262L84.1378 42.2621C83.3513 42.6657 82.6848 43.2696 82.2055 44.0131L82.205 44.0139C81.7397 44.7255 81.4934 45.5584 81.4967 46.409L81.4967 46.4095L81.4967 50.4014H92.1068V46.4095L92.1068 46.409C92.1102 45.5584 91.8639 44.7255 91.3985 44.0139L91.3981 44.0131C90.9187 43.2696 90.2522 42.6657 89.4657 42.2621L89.4655 42.262C88.6415 41.8375 87.7283 41.6161 86.8018 41.6161Z" fill="#2B2B2B"/>
<path d="M100.894 47.5082C99.9978 46.6597 99.5502 45.64 99.5508 44.4491C99.5514 43.2583 99.999 42.2386 100.894 41.3901C101.789 40.5422 102.865 40.1183 104.121 40.1183H110.454C110.539 40.1166 110.623 40.1322 110.702 40.164C110.781 40.1959 110.853 40.2434 110.913 40.3037C110.973 40.3631 111.021 40.434 111.054 40.5123C111.086 40.5907 111.103 40.6748 111.103 40.7598C111.103 40.8447 111.086 40.9288 111.054 41.0072C111.021 41.0855 110.973 41.1564 110.913 41.2158C110.853 41.2763 110.781 41.3238 110.702 41.3557C110.624 41.3875 110.539 41.403 110.454 41.4012H104.121C103.261 41.3829 102.427 41.7038 101.797 42.2958C101.154 42.8927 100.833 43.6115 100.832 44.4519C100.832 45.2924 101.153 46.0108 101.797 46.6072C102.427 47.1994 103.26 47.5206 104.121 47.5026H107.477C108.725 47.5175 109.789 47.947 110.67 48.7911C111.55 49.6353 111.992 50.6485 111.994 51.8307C111.994 53.0247 111.549 54.0444 110.657 54.8898C109.766 55.7352 108.692 56.1591 107.435 56.1616H100.551C100.383 56.1616 100.221 56.094 100.102 55.9737C99.983 55.8534 99.9161 55.6902 99.9161 55.5201C99.9161 55.35 99.983 55.1868 100.102 55.0665C100.221 54.9462 100.383 54.8786 100.551 54.8786H107.435C108.296 54.8966 109.129 54.5754 109.759 53.9832C110.402 53.3862 110.723 52.6675 110.724 51.827C110.725 50.9865 110.403 50.2681 109.759 49.6718C109.129 49.0796 108.296 48.7584 107.435 48.7763H104.125C102.866 48.7788 101.789 48.3561 100.894 47.5082Z" fill="#2B2B2B"/>
<path fill-rule="evenodd" clip-rule="evenodd" d="M110.546 40.4268C110.485 40.4023 110.421 40.3903 110.355 40.3916L110.354 40.3916H104.157C102.962 40.3916 101.942 40.7957 101.091 41.6048C100.242 42.4142 99.8208 43.381 99.8202 44.5121C99.8196 45.6431 100.241 46.6098 101.091 47.4192C101.942 48.2282 102.962 48.6311 104.16 48.6288H107.398C108.274 48.6108 109.123 48.9395 109.764 49.5452C110.42 50.1558 110.752 50.8979 110.752 51.7643C110.751 52.6306 110.419 53.3728 109.765 53.984C109.123 54.5898 108.274 54.9185 107.398 54.9005H100.664C100.535 54.9005 100.411 54.9525 100.32 55.0451C100.229 55.1378 100.178 55.2634 100.178 55.3944C100.178 55.5253 100.229 55.651 100.32 55.7436C100.411 55.8362 100.535 55.8882 100.664 55.8882H107.399C108.595 55.8859 109.613 55.4817 110.459 54.6751C111.305 53.869 111.725 52.9024 111.725 51.7681C111.723 50.645 111.307 49.6843 110.471 48.8792C109.635 48.074 108.627 47.6645 107.439 47.6502H104.158C103.282 47.6681 102.433 47.3395 101.792 46.7337C101.136 46.1231 100.804 45.3811 100.804 44.5147C100.805 43.6484 101.137 42.9062 101.791 42.295C102.433 41.6894 103.282 41.361 104.158 41.3794H110.354L110.356 41.3794C110.421 41.3808 110.485 41.3689 110.546 41.3444C110.606 41.3199 110.661 41.2833 110.707 41.2368L110.708 41.2361C110.754 41.1904 110.79 41.1359 110.815 41.0757C110.84 41.0155 110.853 40.9508 110.853 40.8855C110.853 40.8202 110.84 40.7555 110.815 40.6953C110.79 40.6351 110.754 40.5806 110.708 40.5349L110.707 40.5343C110.661 40.4879 110.606 40.4514 110.546 40.4268ZM110.352 40.1183C110.452 40.1165 110.552 40.1351 110.646 40.173C110.739 40.2111 110.825 40.2678 110.896 40.3398C110.968 40.4108 111.025 40.4956 111.064 40.5893C111.103 40.683 111.123 40.7838 111.123 40.8855C111.123 40.9872 111.103 41.088 111.064 41.1817C111.025 41.2753 110.968 41.3601 110.896 41.4312C110.825 41.5033 110.739 41.5601 110.646 41.5982C110.552 41.6361 110.452 41.6547 110.352 41.6527H104.155L104.154 41.6527C103.347 41.6355 102.565 41.9377 101.975 42.4954L101.974 42.4959C101.372 43.0583 101.074 43.729 101.074 44.5149C101.073 45.3006 101.37 45.9708 101.974 46.5326L101.975 46.5332C102.565 47.0912 103.347 47.3937 104.154 47.3768L104.155 47.3768H107.441L107.441 47.3768C108.696 47.3918 109.77 47.8267 110.657 48.6809C111.544 49.5354 111.992 50.5666 111.994 51.7675V51.7678C111.994 52.9806 111.542 54.0186 110.644 54.8744C109.746 55.7298 108.662 56.1591 107.4 56.1616H100.664C100.464 56.1616 100.271 56.0808 100.13 55.9369C99.9878 55.793 99.9082 55.5978 99.9082 55.3944C99.9082 55.1909 99.9878 54.9957 100.13 54.8519C100.271 54.708 100.464 54.6271 100.664 54.6271H107.401L107.402 54.6272C108.209 54.6441 108.991 54.3415 109.581 53.7836L109.582 53.783C110.184 53.2206 110.482 52.55 110.482 51.7641C110.483 50.9784 110.186 50.3081 109.582 49.7464L109.581 49.7457C108.991 49.1878 108.209 48.8852 107.402 48.9021L107.401 48.9021H104.161C102.896 48.9046 101.809 48.4766 100.907 47.6187C100.005 46.76 99.5502 45.7221 99.5508 44.512C99.5514 43.302 100.006 42.2642 100.907 41.4055L100.907 41.4054C101.809 40.5476 102.895 40.1183 104.157 40.1183H110.352Z" fill="#2B2B2B"/>
<path d="M118.51 55.517V40.7591C118.509 40.6747 118.524 40.5908 118.555 40.5126C118.586 40.4343 118.631 40.3632 118.689 40.3034C118.747 40.2437 118.815 40.1965 118.891 40.1647C118.967 40.1329 119.048 40.1171 119.13 40.1182L119.173 40.1238L119.216 40.1293C119.228 40.1287 119.239 40.1268 119.25 40.1238C119.264 40.1201 119.278 40.1183 119.293 40.1182H126.099C127.441 40.1182 128.585 40.5643 129.53 41.4566C130.476 42.3488 130.95 43.4262 130.953 44.6889C130.953 45.9486 130.48 47.0226 129.534 47.9111C128.588 48.7997 127.444 49.2439 126.103 49.2439H119.749V55.5207C119.749 55.6906 119.684 55.8537 119.568 55.9739C119.452 56.0941 119.294 56.1616 119.13 56.1616C118.965 56.1616 118.808 56.0941 118.691 55.9739C118.575 55.8537 118.51 55.6906 118.51 55.5207V55.517ZM119.749 47.9584H126.102C127.095 47.9584 127.946 47.6395 128.653 47.0016C129.36 46.3638 129.713 45.592 129.713 44.6862C129.713 43.7785 129.36 43.0042 128.653 42.3633C127.946 41.7224 127.095 41.4019 126.102 41.4019H119.749V47.9584Z" fill="#2B2B2B"/>
<path fill-rule="evenodd" clip-rule="evenodd" d="M119.24 40.3913C119.179 40.3914 119.12 40.4035 119.064 40.427C119.006 40.4514 118.954 40.4876 118.91 40.5334C118.865 40.5792 118.831 40.6338 118.807 40.6938C118.784 40.7539 118.772 40.8182 118.773 40.883L118.773 40.8839V55.395C118.773 55.5259 118.823 55.6514 118.912 55.7439C119.001 55.8365 119.122 55.8885 119.248 55.8885C119.374 55.8885 119.495 55.8365 119.584 55.7439C119.673 55.6514 119.723 55.5259 119.723 55.395V49.0886H126.074C127.356 49.0886 128.443 48.6633 129.344 47.8139C130.244 46.965 130.69 45.9454 130.69 44.748C130.688 43.5471 130.24 42.5239 129.34 41.6712C128.44 40.8183 127.353 40.3913 126.07 40.3913H119.408C119.405 40.3914 119.401 40.3918 119.398 40.3925C119.379 40.3977 119.36 40.4009 119.34 40.4021L119.329 40.4027L119.275 40.3958L119.275 40.3958L119.24 40.3913ZM118.965 40.174C119.055 40.1358 119.152 40.1169 119.25 40.1182L119.257 40.1183L119.307 40.1247L119.333 40.128L119.333 40.1278C119.358 40.1215 119.382 40.1183 119.407 40.1182L119.408 40.1182L126.07 40.1182C127.415 40.1182 128.566 40.5683 129.518 41.4694C130.469 42.3709 130.95 43.4658 130.953 44.7474V44.7477C130.953 46.0265 130.473 47.1183 129.521 48.0161C128.569 48.9135 127.417 49.3617 126.074 49.3617H119.986V55.395C119.986 55.5983 119.908 55.7933 119.77 55.9371C119.632 56.0808 119.444 56.1616 119.248 56.1616C119.052 56.1616 118.864 56.0808 118.726 55.9371C118.588 55.7933 118.51 55.5983 118.51 55.395V40.8857C118.509 40.7847 118.527 40.6845 118.564 40.591C118.6 40.4972 118.655 40.4119 118.724 40.3403C118.793 40.2687 118.875 40.2121 118.965 40.174ZM119.723 41.3801H126.073C127.075 41.3801 127.939 41.7058 128.656 42.3589C129.375 43.0128 129.739 43.8104 129.739 44.745C129.739 45.6779 129.375 46.4731 128.656 47.1239C127.939 47.7739 127.075 48.098 126.073 48.098H119.723V41.3801ZM119.986 41.6532V47.8249H126.073C127.016 47.8249 127.817 47.522 128.483 46.9181C129.149 46.315 129.476 45.5928 129.476 44.745C129.476 43.8951 129.149 43.1705 128.483 42.5643C127.816 41.9575 127.016 41.6532 126.073 41.6532H119.986Z" fill="#2B2B2B"/>
<path d="M137.471 55.4973V40.7824C137.468 40.6964 137.481 40.6106 137.51 40.5302C137.538 40.4497 137.581 40.3763 137.636 40.3143C137.692 40.2523 137.758 40.2029 137.831 40.1692C137.905 40.1355 137.984 40.1182 138.063 40.1182C138.143 40.1182 138.222 40.1355 138.295 40.1692C138.369 40.2029 138.435 40.2523 138.49 40.3143C138.545 40.3763 138.589 40.4497 138.617 40.5302C138.645 40.6106 138.658 40.6964 138.655 40.7824V55.4973C138.658 55.5833 138.645 55.6691 138.617 55.7496C138.589 55.83 138.545 55.9034 138.49 55.9655C138.435 56.0275 138.369 56.0768 138.295 56.1105C138.222 56.1442 138.143 56.1616 138.063 56.1616C137.984 56.1616 137.905 56.1442 137.831 56.1105C137.758 56.0768 137.692 56.0275 137.636 55.9655C137.581 55.9034 137.538 55.83 137.51 55.7496C137.481 55.6691 137.468 55.5833 137.471 55.4973Z" fill="#2B2B2B"/>
<path fill-rule="evenodd" clip-rule="evenodd" d="M137.77 40.3905C137.693 40.3905 137.616 40.4039 137.546 40.4298C137.475 40.4558 137.411 40.4938 137.357 40.5416C137.304 40.5893 137.262 40.6459 137.235 40.7079C137.207 40.7698 137.195 40.8359 137.198 40.9022L137.198 40.9048V55.3724H137.04L137.198 55.3776C137.195 55.4438 137.207 55.5099 137.235 55.5719C137.262 55.6338 137.304 55.6904 137.357 55.7382C137.411 55.7859 137.475 55.8239 137.546 55.8499C137.616 55.8759 137.693 55.8892 137.77 55.8892C137.847 55.8892 137.923 55.8759 137.994 55.8499C138.065 55.8239 138.129 55.7859 138.182 55.7382C138.236 55.6904 138.277 55.6338 138.305 55.5719C138.332 55.5099 138.345 55.4438 138.342 55.3776L138.342 55.375V40.9048L138.342 40.9022C138.345 40.8359 138.332 40.7698 138.305 40.7079C138.277 40.6459 138.236 40.5893 138.182 40.5416C138.129 40.4938 138.065 40.4558 137.994 40.4298C137.923 40.4039 137.847 40.3905 137.77 40.3905ZM136.881 55.3699V40.9098C136.877 40.8078 136.897 40.7062 136.939 40.6108C136.982 40.5147 137.046 40.4268 137.129 40.3527C137.212 40.2785 137.312 40.2195 137.422 40.1792C137.532 40.1389 137.65 40.1182 137.77 40.1182C137.889 40.1182 138.008 40.1389 138.118 40.1792C138.228 40.2195 138.327 40.2785 138.41 40.3527C138.493 40.4268 138.558 40.5147 138.6 40.6108C138.642 40.7062 138.662 40.8078 138.658 40.9098V55.3699C138.662 55.4719 138.642 55.5736 138.6 55.6689C138.558 55.7651 138.493 55.8529 138.41 55.9271C138.327 56.0012 138.228 56.0602 138.118 56.1005C138.008 56.1408 137.889 56.1616 137.77 56.1616C137.65 56.1616 137.532 56.1408 137.422 56.1005C137.312 56.0602 137.212 56.0012 137.129 55.9271C137.046 55.8529 136.982 55.7651 136.939 55.6689C136.897 55.5736 136.877 55.4719 136.881 55.3699Z" fill="#2B2B2B"/>
<path fill-rule="evenodd" clip-rule="evenodd" d="M32.2944 16.3047C38.4186 13.3763 45.247 12.2403 51.9901 13.0279C58.7332 13.8156 65.1155 16.4949 70.3992 20.7559L71.0779 21.3032L61.5489 31.4196L60.9717 30.9908C57.1773 28.1721 52.5742 26.6524 47.8465 26.6576H47.8456C35.6704 26.6576 25.7626 36.5608 25.7626 48.7304C25.7626 60.9001 35.6678 70.8033 47.8456 70.8033H47.8464C52.5843 70.8077 57.1965 69.2807 60.995 66.4501L61.5724 66.0198L71.1051 76.1418L70.4276 76.6892C65.1483 80.9556 58.7687 83.6413 52.0264 84.4359C45.2842 85.2304 38.4546 84.1013 32.3274 81.1791C26.2001 78.257 21.0255 73.661 17.4017 67.9227C13.778 62.1844 11.8531 55.5382 11.8496 48.7523C11.8462 41.9665 13.7643 35.3183 17.3822 29.5763C21.0001 23.8343 26.1701 19.2331 32.2944 16.3047ZM51.8025 14.6321C45.3624 13.8798 38.8408 14.9648 32.9917 17.7617C27.1426 20.5585 22.2049 24.953 18.7495 30.437C15.2941 35.921 13.4621 42.2705 13.4654 48.7515C13.4687 55.2325 15.3072 61.5802 18.7681 67.0606C22.2291 72.5411 27.1713 76.9306 33.0232 79.7215C38.8752 82.5124 45.3979 83.5907 51.8373 82.8319C57.9877 82.1071 63.8221 79.7346 68.7267 75.9727L61.3757 68.1672C57.4137 70.9353 52.6904 72.4228 47.8449 72.4184C34.7748 72.418 24.1468 61.7917 24.1468 48.7304C24.1468 35.6689 34.7779 25.0427 47.8454 25.0425C47.8455 25.0425 47.8455 25.0425 47.8456 25.0425V25.8501L47.8447 25.0425C47.845 25.0425 47.8452 25.0425 47.8454 25.0425C52.6801 25.0373 57.3936 26.5176 61.3508 29.2738L60.8654 29.7891L61.4536 30.3427L61.9356 29.6945C61.7425 29.5512 61.5476 29.4109 61.3508 29.2738L68.6982 21.4736C68.929 21.6503 69.1578 21.83 69.3845 22.0128L69.8919 21.3843L69.3036 20.8308L68.6982 21.4736C63.7899 17.717 57.9534 15.3506 51.8025 14.6321Z" fill="#EB2F47"/>
</svg>
